<?xml version="1.0" standalone="no"?>
<!DOCTYPE svg PUBLIC "-//W3C//DTD SVG 20010904//EN"
 "http://www.w3.org/TR/2001/REC-SVG-20010904/DTD/svg10.dtd">
<svg version="1.0" xmlns="http://www.w3.org/2000/svg"
 width="1213.000000pt" height="1213.000000pt" viewBox="0 0 1213.000000 1213.000000"
 preserveAspectRatio="xMidYMid meet">

<g transform="translate(0.000000,1213.000000) scale(0.100000,-0.100000)"
fill="#000000" stroke="none">
<path d="M2034 11171 c-2 -3 -235 -4 -517 -3 -281 1 -518 -2 -525 -6 -10 -7
-13 -286 -18 -1383 -6 -1615 -6 -1447 1 -2074 5 -431 3 -513 -11 -591 -14 -82
-14 -99 -1 -175 13 -71 15 -215 13 -899 -2 -448 -4 -861 -7 -917 -2 -57 -1
-103 3 -103 3 0 5 -672 2 -1492 -2 -821 -3 -1540 -2 -1598 1 -58 3 -291 5
-519 2 -272 6 -418 13 -425 7 -7 168 -12 473 -14 254 -1 485 -6 514 -11 33 -5
56 -4 62 2 7 7 192 10 518 9 279 0 576 0 658 1 286 2 530 -4 533 -13 5 -15
176 -12 190 2 12 12 25 13 547 12 94 -1 235 -1 315 0 80 0 210 -2 290 -4 80
-1 519 -1 977 1 657 3 835 1 844 -8 18 -18 200 -18 218 -1 9 10 167 13 709 15
383 1 715 3 737 3 60 2 863 -13 993 -17 61 -2 112 -1 112 4 0 11 423 11 431 0
7 -9 21 -9 597 -2 l432 6 15 23 c13 20 15 79 14 397 0 206 0 383 0 394 0 11 1
55 0 98 0 43 6 94 13 113 10 30 10 37 -2 44 -13 8 -14 54 -11 317 2 169 4 550
3 846 0 295 3 537 7 537 15 0 21 120 9 168 -7 33 -12 334 -15 997 -2 523 -4
961 -4 975 -5 103 5 1041 10 1045 8 5 5 210 -4 262 -7 38 -7 1565 -1 2468 2
347 4 637 4 645 -5 571 -11 847 -18 854 -6 6 -3880 19 -4685 15 -11 0 -373 -2
-805 -5 -941 -6 -864 -6 -1335 0 -209 3 -427 4 -485 3 -126 -2 -1297 2 -1598
5 -118 2 -216 1 -218 -1z m7626 -873 c215 -53 389 -174 518 -361 61 -88 92
-154 118 -252 18 -68 19 -172 19 -3610 -1 -3315 -2 -3545 -18 -3615 -32 -139
-110 -274 -227 -390 -65 -66 -178 -150 -200 -150 -7 0 -24 -7 -38 -14 -48 -27
-96 -44 -160 -60 -56 -14 -432 -16 -3595 -16 l-3533 0 -98 25 c-155 40 -265
106 -382 227 -146 150 -213 295 -234 506 -8 75 -10 1126 -7 3572 l3 3465 21
73 c64 220 245 431 458 533 169 81 -60 73 2360 79 1188 3 2783 5 3545 5 1237
-1 1392 -3 1450 -17z"/>
<path d="M3230 8376 c-120 -34 -194 -96 -230 -193 -36 -95 -42 -198 -38 -640
4 -404 5 -420 27 -488 19 -58 33 -80 81 -127 100 -98 205 -116 570 -99 249 12
503 29 538 37 22 4 22 7 22 150 0 121 -3 146 -15 151 -9 3 -80 0 -158 -6 -78
-7 -244 -15 -369 -18 l-226 -6 -31 31 -31 30 0 396 c0 226 4 405 10 420 5 14
21 33 37 43 24 16 63 18 403 23 l375 5 0 150 0 150 -460 2 c-346 1 -471 -2
-505 -11z"/>
<path d="M4414 8377 c-2 -7 -3 -307 -2 -667 l3 -655 24 -53 c45 -99 139 -161
267 -178 59 -7 273 13 292 28 15 13 17 245 2 268 -6 10 -34 16 -90 21 -44 3
-86 11 -93 18 -9 9 -13 159 -17 619 -3 334 -7 608 -8 610 -1 1 -85 2 -187 2
-143 0 -187 -3 -191 -13z"/>
<path d="M5555 8040 c-148 -8 -205 -30 -269 -101 -78 -87 -80 -97 -84 -488 -3
-322 -2 -348 17 -410 36 -119 119 -188 253 -211 67 -12 416 -1 649 20 57 5
116 9 131 10 51 0 58 19 58 157 l0 126 -157 -6 c-87 -4 -233 -10 -324 -13 -91
-4 -177 -4 -191 -1 -13 4 -30 18 -36 32 -15 32 -16 102 -2 110 6 4 169 6 363
5 277 0 356 2 370 12 17 13 18 32 15 268 -3 241 -4 258 -26 305 -30 66 -93
129 -156 156 -77 33 -326 45 -611 29z m384 -299 c13 -13 22 -41 26 -86 11 -99
10 -99 -183 -101 -86 -1 -165 0 -174 3 -15 4 -18 16 -18 82 0 64 4 81 20 99
20 21 30 22 165 22 129 0 147 -2 164 -19z"/>
<path d="M7030 8033 c-265 -19 -354 -31 -367 -48 -15 -22 -19 -231 -4 -254 8
-12 33 -13 168 -3 338 25 416 26 451 8 37 -19 52 -43 52 -85 0 -64 12 -61
-260 -61 -223 0 -255 -2 -315 -21 -55 -17 -78 -31 -120 -73 -75 -75 -90 -125
-90 -297 1 -133 1 -137 33 -202 62 -126 155 -172 342 -171 136 0 227 22 350
84 l80 40 6 -40 c4 -22 12 -44 19 -50 8 -7 73 -9 176 -8 l164 3 0 475 0 475
-33 67 c-34 70 -77 112 -147 144 -34 15 -71 18 -245 19 -113 1 -230 0 -260 -2z
m298 -778 c2 -30 -2 -57 -10 -67 -18 -24 -141 -48 -249 -48 -82 0 -92 2 -114
25 -34 33 -34 87 0 121 24 24 25 24 197 22 l173 -3 3 -50z"/>
<path d="M8580 8020 c-41 -11 -111 -38 -154 -59 -43 -22 -83 -38 -87 -35 -5 3
-9 16 -9 28 0 13 -8 33 -17 45 -17 21 -25 22 -178 19 l-160 -3 -3 -583 -2
-582 192 2 193 3 3 402 2 403 23 14 c33 21 151 40 255 40 142 1 132 36 132
-439 0 -216 3 -400 6 -409 5 -14 32 -16 190 -16 171 0 184 1 194 19 14 26 13
814 0 900 -19 114 -85 206 -177 247 -61 28 -306 30 -403 4z"/>
<path d="M4265 6128 c-3 -13 -4 -465 -3 -1006 3 -861 5 -984 18 -992 18 -12
480 -13 497 -2 10 6 13 79 15 287 l3 280 430 6 c368 5 439 8 489 23 170 50
264 140 317 301 21 65 23 91 27 365 4 315 -2 370 -48 493 -28 75 -110 164
-183 200 -129 63 -106 61 -864 65 l-692 3 -6 -23z m1194 -406 c19 -9 44 -30
55 -45 20 -27 21 -42 21 -251 0 -331 27 -311 -415 -311 l-325 0 -3 300 c-1
165 0 305 3 312 3 10 75 13 317 13 278 0 317 -2 347 -18z"/>
<path d="M6730 6134 c-156 -33 -254 -96 -317 -204 -68 -114 -82 -265 -82 -880
-1 -525 14 -647 96 -768 71 -105 188 -164 366 -184 176 -20 1114 30 1151 61
14 11 16 43 16 199 l0 185 -137 -7 c-76 -3 -212 -11 -303 -16 -91 -5 -258 -9
-372 -10 l-208 0 -32 29 -33 29 -3 536 c-3 593 -4 578 61 613 29 16 78 18 527
23 l495 5 0 200 0 200 -580 2 c-464 1 -593 -1 -645 -13z"/>
</g>
</svg>
